<svg width="15" height="12" viewBox="0 0 15 12" fill="none" xmlns="http://www.w3.org/2000/svg">
<path fill-rule="evenodd" clip-rule="evenodd" d="M10.9395 1.125C10.94 3.24881 11.8033 4.23137 12.6006 4.71289C13.0153 4.96319 13.4352 5.09031 13.7529 5.1543C13.9108 5.18609 14.0415 5.20233 14.1299 5.20996C14.1735 5.21373 14.2067 5.21497 14.2275 5.21582C14.238 5.21624 14.2461 5.21672 14.25 5.2168L14.252 5.21777L14.249 5.93359L14.252 6.78223L14.25 6.7832C14.2461 6.78328 14.238 6.78278 14.2275 6.7832C14.2067 6.78405 14.1736 6.78627 14.1299 6.79004C14.0415 6.79767 13.9109 6.8139 13.7529 6.8457C13.4352 6.90969 13.0153 7.03583 12.6006 7.28613C11.8032 7.76762 10.9399 8.75074 10.9395 10.875L9.94531 10.873C9.94584 8.40445 10.986 7.08928 12.0918 6.42188C12.1196 6.40511 12.148 6.38993 12.1758 6.37402H0.75V5.37402H11.7881C10.8032 4.6557 9.9458 3.36715 9.94531 1.12695L10.9395 1.125Z" fill="#F4F4F4"/>
</svg>
