<svg width="376" height="510" viewBox="0 0 376 510" fill="none" xmlns="http://www.w3.org/2000/svg">
<g clip-path="url(#clip0_253_9337)">
<path d="M373.105 510C348.303 435.186 275.093 380.964 188.628 380.964C102.164 380.964 28.9543 435.186 4.15137 510H373.105Z" fill="#0042FF"/>
<path d="M372.066 177.829C372.064 167.512 368.196 157.57 361.222 149.961C354.249 142.352 344.675 137.628 334.389 136.72C327.361 111.866 314.081 89.2226 295.814 70.9469C277.547 52.6712 254.901 39.3713 230.033 32.3139C205.164 25.2564 178.901 24.6763 153.744 30.6289C128.588 36.5814 105.376 48.8684 86.3178 66.3197C67.2602 83.7711 52.9917 105.806 44.8713 130.325C36.7509 154.845 35.0489 181.033 39.9274 206.395C44.8059 231.758 56.1024 255.451 72.7412 275.217C89.38 294.984 110.807 310.166 134.982 319.319V413.81C134.982 413.81 134.982 448.386 188.629 448.386C242.275 448.386 244.006 413.81 244.006 413.81V318.661C265.736 310.106 285.197 296.657 300.873 279.36C316.55 262.064 328.019 241.386 334.389 218.937C344.675 218.029 354.249 213.305 361.222 205.696C368.196 198.087 372.064 188.145 372.066 177.829Z" fill="#0855FF"/>
<path d="M46.7245 243.394C72.5298 243.394 93.4491 217.88 93.4491 186.408C93.4491 154.936 72.5298 129.423 46.7245 129.423C20.9193 129.423 0 154.936 0 186.408C0 217.88 20.9193 243.394 46.7245 243.394Z" fill="#FE3104"/>
<path d="M204.203 130.863L202.472 253.032H235.064L214.297 130.863" fill="#FA5BD6"/>
<path d="M254.389 197.686C272.429 197.686 287.053 184.603 287.053 168.466C287.053 152.328 272.429 139.246 254.389 139.246C251.115 139.242 247.855 139.682 244.699 140.554C239.592 142.712 234.969 145.868 231.1 149.837C227.232 153.805 224.196 158.506 222.172 163.663C221.877 165.247 221.727 166.855 221.725 168.466C221.725 184.603 236.349 197.686 254.389 197.686Z" fill="#0009ED"/>
<path d="M254.388 196.135C271.473 196.135 285.322 183.746 285.322 168.464C285.322 153.181 271.473 140.792 254.388 140.792C237.304 140.792 223.455 153.181 223.455 168.464C223.455 183.746 237.304 196.135 254.388 196.135Z" fill="#FEFFFF"/>
<path d="M251.144 181.72C258.192 181.72 263.906 176.011 263.906 168.97C263.906 161.928 258.192 156.22 251.144 156.22C244.095 156.22 238.381 161.928 238.381 168.97C238.381 176.011 244.095 181.72 251.144 181.72Z" fill="black"/>
<path d="M122.959 168.466C122.959 184.603 137.583 197.686 155.623 197.686C173.663 197.686 188.287 184.603 188.287 168.466C188.287 167.999 188.272 167.536 188.247 167.074C186.449 160.975 183.273 155.37 178.964 150.69C174.654 146.011 169.327 142.383 163.392 140.085C160.84 139.527 158.235 139.246 155.623 139.246C137.583 139.246 122.959 152.328 122.959 168.466Z" fill="#0009ED"/>
<path d="M124.689 168.464C124.689 183.747 138.539 196.136 155.623 196.136C172.707 196.136 186.556 183.747 186.556 168.464C186.552 164.521 185.619 160.634 183.834 157.117C181.453 153.239 178.453 149.776 174.951 146.867C169.302 142.874 162.543 140.749 155.623 140.793C138.539 140.793 124.689 153.182 124.689 168.464Z" fill="#FEFFFF"/>
<path d="M162.545 181.72C169.594 181.72 175.308 176.011 175.308 168.97C175.308 161.928 169.594 156.22 162.545 156.22C155.496 156.22 149.782 161.928 149.782 168.97C149.782 176.011 155.496 181.72 162.545 181.72Z" fill="black"/>
<path d="M148.442 128.56C138.506 128.56 128.794 131.503 120.533 137.017C112.272 142.531 105.834 150.369 102.032 159.539C98.2298 168.708 97.235 178.799 99.1733 188.533C101.112 198.268 105.896 207.21 112.921 214.228C119.946 221.246 128.897 226.026 138.642 227.962C148.386 229.898 158.486 228.904 167.665 225.106C176.844 221.308 184.69 214.876 190.21 206.623C195.729 198.371 198.675 188.668 198.675 178.743C198.675 172.153 197.376 165.627 194.852 159.539C192.327 153.45 188.627 147.918 183.962 143.258C179.298 138.598 173.76 134.901 167.665 132.38C161.571 129.858 155.038 128.56 148.442 128.56ZM148.442 220.186C140.237 220.186 132.216 217.756 125.394 213.202C118.572 208.648 113.255 202.175 110.115 194.603C106.975 187.03 106.153 178.697 107.754 170.658C109.355 162.619 113.306 155.234 119.107 149.438C124.909 143.642 132.301 139.695 140.348 138.096C148.396 136.497 156.737 137.318 164.317 140.454C171.898 143.591 178.377 148.903 182.935 155.718C187.493 162.534 189.927 170.546 189.927 178.743C189.927 189.734 185.556 200.276 177.776 208.048C169.996 215.82 159.444 220.186 148.442 220.186Z" fill="#000001"/>
<path d="M336.733 164.74C327.215 167.333 310.058 168.78 310.058 168.78L310.058 168.781C308.054 158.902 303.119 149.855 295.896 142.818C288.672 135.781 279.495 131.079 269.56 129.325C259.624 127.571 249.39 128.847 240.19 132.985C230.991 137.124 223.251 143.934 217.98 152.528L220.662 168.304C223.05 159.126 228.518 151.043 236.151 145.405C243.784 139.766 253.122 136.913 262.606 137.322C272.091 137.73 281.148 141.375 288.268 147.649C295.387 153.923 300.137 162.445 301.727 171.795C303.316 181.145 301.648 190.757 297.001 199.026C292.354 207.296 285.008 213.724 276.191 217.237C267.373 220.75 257.616 221.137 248.547 218.332C239.479 215.527 231.647 209.7 226.359 201.824L229.042 217.607C236.135 223.396 244.678 227.138 253.746 228.426C262.815 229.715 272.063 228.501 280.491 224.916C288.918 221.332 296.204 215.513 301.559 208.089C306.914 200.666 310.135 191.92 310.873 182.8L310.886 182.813C310.886 182.813 316.399 183.325 331.974 181.164C347.549 179.003 346.251 162.147 336.733 164.74Z" fill="#000001"/>
<path d="M186.77 379.233C199.792 379.233 210.348 370.525 210.348 359.784C210.348 349.043 199.792 340.335 186.77 340.335C173.747 340.335 163.191 349.043 163.191 359.784C163.191 370.525 173.747 379.233 186.77 379.233Z" fill="#FE3104"/>
<path d="M356.491 11.8654C326.206 11.8654 177.38 26.5602 177.38 26.5602C177.38 26.5602 176.107 26.7646 174.049 27.2533C144.986 30.0721 117.357 41.2191 94.4857 59.3536C71.6144 77.4881 54.4747 101.838 45.1284 129.473C45.6593 129.451 46.189 129.424 46.7243 129.424C54.0838 129.454 61.2911 131.521 67.5455 135.396L142.769 61.8682C149.691 90.5259 377.257 136.553 375.527 100.899C372.923 47.2575 375.527 11.5432 356.491 11.8654Z" fill="black"/>
<path d="M163.191 359.786C163.208 356.688 164.09 353.655 165.736 351.03C156.889 351.485 41.3308 355.279 58.065 241.694C51.021 243.858 43.5036 243.958 36.4045 241.982C33.6846 267.323 29.558 378.55 167.737 371.234C164.86 368.109 163.241 364.032 163.191 359.786Z" fill="black"/>
<path d="M127.459 35.2035C127.459 35.2035 147.527 23.8222 172.188 23.8222C196.848 23.8222 209.096 39.2628 220.066 33.0425C231.281 26.6829 245.135 15.3222 206.631 5.38163C168.126 -4.55899 141.038 -0.18361 117.94 14.0257C97.0071 26.9036 117.075 41.6865 127.459 35.2035Z" fill="#FD2F03"/>
</g>
<defs>
<clipPath id="clip0_253_9337">
<rect width="375.537" height="510" fill="white"/>
</clipPath>
</defs>
</svg>
