<svg width="72" height="80" viewBox="0 0 72 80" fill="none" xmlns="http://www.w3.org/2000/svg">
<path d="M36 80C32.9758 80 30.6679 79.0419 29.0762 77.1257C27.4846 75.2096 26.6887 73.0539 26.6887 70.6587C26.6887 68.1038 27.1663 65.7884 28.1212 63.7126C29.2354 61.477 30.3496 59.002 31.4637 56.2874C32.7371 53.4132 33.6125 49.98 34.09 45.988C34.2492 45.0299 34.0104 44.4711 33.3737 44.3114C32.8962 43.992 32.2596 44.1517 31.4637 44.7904C26.6888 48.7824 23.3463 52.4551 21.4363 55.8084C19.6854 59.1617 17.2184 61.7166 14.035 63.473C11.9659 64.5908 9.73756 64.99 7.35006 64.6706C4.96257 64.1916 2.97299 62.6746 1.38133 60.1197C-0.0511672 57.4052 -0.3695 54.8503 0.426332 52.4551C1.22216 50.0599 2.65466 48.3034 4.72382 47.1856C6.95215 45.9082 9.26006 45.1896 11.6476 45.0299C14.1942 44.8703 16.9 44.6307 19.765 44.3114C22.7892 43.992 26.1317 43.0339 29.7925 41.4371C30.7475 41.1178 31.225 40.6387 31.225 40C31.225 39.3613 30.7475 38.8822 29.7925 38.5629C26.1317 36.8064 22.7892 35.8483 19.765 35.6886C16.9 35.3693 14.1942 35.1297 11.6476 34.9701C9.26006 34.8104 6.95215 34.0918 4.72382 32.8144C2.65466 31.5369 1.22216 29.7006 0.426335 27.3054C-0.369496 24.9102 -0.0511631 22.4351 1.38133 19.8802C2.973 17.3254 4.96257 15.8084 7.35007 15.3293C9.73756 14.8503 11.9659 15.2495 14.035 16.527C16.2634 17.8044 18.0938 19.481 19.5263 21.5569C20.9588 23.4731 22.5504 25.6287 24.3013 28.024C26.0521 30.4192 28.5192 32.8942 31.7025 35.4491C32.4983 36.0878 33.135 36.2475 33.6125 35.9281C34.09 35.6088 34.2492 34.9701 34.09 34.012C33.6125 29.8603 32.7371 26.4271 31.4637 23.7126C30.3496 20.998 29.2354 18.523 28.1213 16.2874C27.1663 14.0519 26.6888 11.7365 26.6888 9.34133C26.6888 6.94612 27.4846 4.79043 29.0763 2.87425C30.6679 0.958086 32.9758 0 36 0C39.0241 0 41.3321 0.958086 42.9237 2.87425C44.5154 4.79043 45.3112 6.94612 45.3112 9.34133C45.3112 11.7365 44.7541 14.0519 43.64 16.2874C42.685 18.523 41.5708 20.998 40.2975 23.7126C39.1833 26.4271 38.3875 29.8603 37.91 34.012C37.7508 34.9701 37.91 35.6088 38.3875 35.9281C39.0241 36.2475 39.6608 36.0878 40.2975 35.4491C43.64 32.8942 46.107 30.4192 47.6987 28.024C49.4495 25.6287 51.0412 23.4731 52.4737 21.5569C53.9062 19.481 55.7366 17.8044 57.9649 16.527C60.0341 15.2495 62.2624 14.8503 64.6499 15.3293C67.0374 15.8084 69.027 17.3254 70.6186 19.8802C72.0511 22.4351 72.3695 24.9102 71.5736 27.3054C70.7778 29.7006 69.3453 31.5369 67.2761 32.8144C65.0478 34.0918 62.6603 34.8104 60.1137 34.9701C57.7262 35.1297 55.0204 35.3693 51.9962 35.6886C49.1312 35.8483 45.8683 36.8064 42.2075 38.5629C41.2525 38.8822 40.775 39.3613 40.775 40C40.775 40.6387 41.2525 41.1178 42.2075 41.4371C45.8683 43.0339 49.1312 43.992 51.9962 44.3114C55.0203 44.6307 57.7262 44.8703 60.1137 45.0299C62.6603 45.1896 65.0478 45.9082 67.2761 47.1856C69.3453 48.3034 70.7778 50.0599 71.5736 52.4551C72.3695 54.8503 72.0511 57.4052 70.6186 60.1197C69.027 62.6746 67.0374 64.1916 64.6499 64.6706C62.2624 64.99 60.0341 64.5908 57.9649 63.473C54.9408 61.7166 52.4737 59.1617 50.5637 55.8084C48.6537 52.4551 45.3112 48.7824 40.5362 44.7904C39.8996 44.1517 39.2629 43.992 38.6262 44.3114C37.9896 44.4711 37.7508 45.0299 37.91 45.988C38.3875 49.98 39.1833 53.4132 40.2975 56.2874C41.5708 59.002 42.685 61.477 43.64 63.7126C44.7541 65.7884 45.3112 68.1038 45.3112 70.6587C45.3112 73.0539 44.5154 75.2096 42.9237 77.1257C41.332 79.0419 39.0241 80 36 80Z" fill="#1A1A1A"/>
</svg>
