<svg width="24" height="24" viewBox="0 0 24 24" fill="none" xmlns="http://www.w3.org/2000/svg">
<circle cx="5.95254" cy="5.95254" r="1.95254" fill="#F4F4F4"/>
<rect x="4.3252" y="9.36914" width="3.25424" height="10.6305" fill="#F4F4F4"/>
<rect x="9.69482" y="9.36914" width="3.25424" height="10.6305" fill="#F4F4F4"/>
<path d="M12.9491 10.5086C12.9491 10.5086 13.9426 9.55739 14.7664 9.26114C16.2015 8.74504 17.6995 8.95653 18.8882 9.91198C19.9613 10.7745 20.0003 12.2713 20.0003 12.9764C20.0003 15.0374 20.0003 20.0001 20.0003 20.0001H16.746C16.746 20.0001 16.6374 14.6035 16.6374 14.1967C16.6374 13.2205 15.444 11.6205 14.1694 12.2984C12.7774 13.0389 12.9491 14.5222 12.9491 14.5222L12.9491 10.5086Z" fill="#F4F4F4"/>
</svg>
