<svg width="16" height="18" viewBox="0 0 16 18" fill="none" xmlns="http://www.w3.org/2000/svg">
<path d="M8 18C7.32796 18 6.81509 17.7844 6.46139 17.3533C6.10769 16.9222 5.93084 16.4371 5.93084 15.8982C5.93084 15.3234 6.03695 14.8024 6.24917 14.3353C6.49676 13.8323 6.74435 13.2754 6.99195 12.6647C7.27491 12.018 7.46944 11.2455 7.57555 10.3473C7.61093 10.1317 7.55787 10.006 7.41639 9.97006C7.31028 9.8982 7.1688 9.93413 6.99195 10.0778C5.93084 10.976 5.18806 11.8024 4.76362 12.5569C4.37454 13.3114 3.8263 13.8862 3.1189 14.2814C2.65909 14.5329 2.1639 14.6228 1.63335 14.5509C1.10279 14.4431 0.660666 14.1018 0.306963 13.5269C-0.011369 12.9162 -0.0821096 12.3413 0.0947419 11.8024C0.271593 11.2635 0.589926 10.8683 1.04974 10.6168C1.54492 10.3293 2.05779 10.1677 2.58835 10.1317C3.15427 10.0958 3.75556 10.0419 4.39223 9.97006C5.06426 9.8982 5.80704 9.68264 6.62056 9.32335C6.83278 9.2515 6.93889 9.14371 6.93889 9C6.93889 8.85629 6.83278 8.7485 6.62056 8.67665C5.80704 8.28144 5.06426 8.06587 4.39223 8.02994C3.75556 7.95809 3.15427 7.90419 2.58835 7.86826C2.05779 7.83234 1.54492 7.67066 1.04974 7.38323C0.589926 7.09581 0.271593 6.68264 0.0947419 6.14371C-0.0821096 5.60479 -0.011369 5.04791 0.306963 4.47306C0.660666 3.89821 1.10279 3.55689 1.63335 3.4491C2.1639 3.34132 2.65909 3.43114 3.1189 3.71857C3.61408 4.00599 4.02084 4.38324 4.33917 4.8503C4.65751 5.28144 5.01121 5.76647 5.40028 6.30539C5.78936 6.84431 6.33759 7.4012 7.045 7.97605C7.22185 8.11976 7.36333 8.15569 7.46944 8.08383C7.57555 8.01198 7.61093 7.86826 7.57555 7.6527C7.46944 6.71856 7.27491 5.94611 6.99195 5.33533C6.74435 4.72455 6.49676 4.16767 6.24917 3.66467C6.03695 3.16168 5.93084 2.64072 5.93084 2.1018C5.93084 1.56288 6.10769 1.07785 6.46139 0.646707C6.81509 0.215569 7.32796 0 8 0C8.67203 0 9.1849 0.215569 9.53861 0.646707C9.89231 1.07785 10.0692 1.56288 10.0692 2.1018C10.0692 2.64072 9.94536 3.16168 9.69777 3.66467C9.48555 4.16767 9.23796 4.72455 8.955 5.33533C8.7074 5.94611 8.53055 6.71856 8.42444 7.6527C8.38907 7.86826 8.42444 8.01198 8.53055 8.08383C8.67203 8.15569 8.81351 8.11976 8.955 7.97605C9.69777 7.4012 10.246 6.84431 10.5997 6.30539C10.9888 5.76647 11.3425 5.28144 11.6608 4.8503C11.9792 4.38324 12.3859 4.00599 12.8811 3.71857C13.3409 3.43114 13.8361 3.34132 14.3666 3.4491C14.8972 3.55689 15.3393 3.89821 15.693 4.47306C16.0114 5.04791 16.0821 5.60479 15.9053 6.14371C15.7284 6.68264 15.4101 7.09581 14.9503 7.38323C14.4551 7.67066 13.9245 7.83234 13.3586 7.86826C12.828 7.90419 12.2267 7.95809 11.5547 8.02994C10.918 8.06587 10.193 8.28144 9.37944 8.67665C9.16722 8.7485 9.06111 8.85629 9.06111 9C9.06111 9.14371 9.16722 9.2515 9.37944 9.32335C10.193 9.68264 10.918 9.8982 11.5547 9.97006C12.2267 10.0419 12.828 10.0958 13.3586 10.1317C13.9245 10.1677 14.4551 10.3293 14.9503 10.6168C15.4101 10.8683 15.7284 11.2635 15.9053 11.8024C16.0821 12.3413 16.0114 12.9162 15.693 13.5269C15.3393 14.1018 14.8972 14.4431 14.3666 14.5509C13.8361 14.6228 13.3409 14.5329 12.8811 14.2814C12.2091 13.8862 11.6608 13.3114 11.2364 12.5569C10.8119 11.8024 10.0692 10.976 9.00805 10.0778C8.86657 9.93413 8.72509 9.8982 8.58361 9.97006C8.44213 10.006 8.38907 10.1317 8.42444 10.3473C8.53055 11.2455 8.7074 12.018 8.955 12.6647C9.23796 13.2754 9.48555 13.8323 9.69777 14.3353C9.94536 14.8024 10.0692 15.3234 10.0692 15.8982C10.0692 16.4371 9.89231 16.9222 9.53861 17.3533C9.1849 17.7844 8.67203 18 8 18Z" fill="#F4F4F4"/>
</svg>
