<svg width="36" height="26" viewBox="0 0 36 26" fill="none" xmlns="http://www.w3.org/2000/svg">
<path d="M26.8398 0C26.8412 5.78048 29.204 8.51175 31.4336 9.85742C32.5803 10.5495 33.736 10.8994 34.6094 11.0752C35.0439 11.1627 35.4034 11.2053 35.6494 11.2266C35.7722 11.2372 35.8664 11.2427 35.9268 11.2451C35.9568 11.2463 35.9786 11.2478 35.9912 11.248C35.9962 11.2481 35.9998 11.2489 36.002 11.249L35.9971 12.9502L36.002 14.75C35.9998 14.7501 35.9962 14.7509 35.9912 14.751C35.9786 14.7512 35.9568 14.7527 35.9268 14.7539C35.8664 14.7563 35.7722 14.7619 35.6494 14.7725C35.4034 14.7937 35.0439 14.8364 34.6094 14.9238C33.736 15.0997 32.5803 15.4495 31.4336 16.1416C29.204 17.4873 26.8412 20.2185 26.8398 25.999L25.8457 25.9971L24.8525 25.9951C24.8539 19.5268 27.5669 16.1308 30.4131 14.4131C30.6681 14.2592 30.9245 14.1229 31.1768 13.9961H0V11.9961H31.1631C30.9153 11.8712 30.6635 11.737 30.4131 11.5859C27.5669 9.8682 24.8539 6.47224 24.8525 0.00390625L25.8457 0.00195312L26.8398 0Z" fill="#F4F4F4"/>
</svg>
