<svg width="13" height="14" viewBox="0 0 13 14" fill="none" xmlns="http://www.w3.org/2000/svg">
<path d="M6.5 14C5.95397 14 5.53726 13.8323 5.24988 13.497C4.9625 13.1617 4.8188 12.7844 4.8188 12.3653C4.8188 11.9182 4.90502 11.513 5.07745 11.1497C5.27862 10.7585 5.47979 10.3253 5.68096 9.8503C5.91086 9.34731 6.06892 8.74651 6.15514 8.0479C6.18388 7.88024 6.14077 7.78244 6.02582 7.75449C5.9396 7.6986 5.82465 7.72655 5.68096 7.83832C4.8188 8.53693 4.2153 9.17964 3.87044 9.76647C3.55432 10.3533 3.10887 10.8004 2.53411 11.1078C2.16051 11.3034 1.75817 11.3733 1.3271 11.3174C0.896021 11.2335 0.536791 10.9681 0.249408 10.521C-0.00923731 10.0459 -0.066714 9.5988 0.0769778 9.17964C0.220669 8.76048 0.479315 8.45309 0.852913 8.25749C1.25525 8.03393 1.67196 7.90818 2.10303 7.88024C2.56284 7.8523 3.0514 7.81038 3.56869 7.75449C4.11471 7.6986 4.71822 7.53094 5.3792 7.2515C5.55163 7.19561 5.63785 7.11178 5.63785 7C5.63785 6.88822 5.55163 6.80439 5.3792 6.7485C4.71822 6.44112 4.11471 6.27345 3.56869 6.24551C3.0514 6.18962 2.56284 6.14771 2.10303 6.11976C1.67196 6.09182 1.25525 5.96607 0.852913 5.74252C0.479315 5.51896 0.220669 5.19761 0.0769778 4.77844C-0.066714 4.35928 -0.00923731 3.92615 0.249408 3.47904C0.536791 3.03194 0.896021 2.76647 1.3271 2.68264C1.75817 2.5988 2.16051 2.66866 2.53411 2.89222C2.93644 3.11577 3.26693 3.40918 3.52558 3.77246C3.78422 4.10779 4.07161 4.48503 4.38773 4.90419C4.70385 5.32335 5.1493 5.75649 5.72406 6.20359C5.86775 6.31537 5.98271 6.34331 6.06892 6.28743C6.15514 6.23154 6.18388 6.11976 6.15514 5.9521C6.06892 5.22555 5.91086 4.62475 5.68096 4.1497C5.47979 3.67465 5.27862 3.24152 5.07745 2.8503C4.90502 2.45908 4.8188 2.05389 4.8188 1.63473C4.8188 1.21557 4.9625 0.838326 5.24988 0.502994C5.53726 0.167665 5.95397 0 6.5 0C7.04603 0 7.46273 0.167665 7.75012 0.502994C8.0375 0.838326 8.18119 1.21557 8.18119 1.63473C8.18119 2.05389 8.08061 2.45908 7.87944 2.8503C7.70701 3.24152 7.50584 3.67465 7.27593 4.1497C7.07477 4.62475 6.93107 5.22555 6.84486 5.9521C6.81612 6.11976 6.84486 6.23154 6.93107 6.28743C7.04603 6.34331 7.16098 6.31537 7.27593 6.20359C7.87944 5.75649 8.32488 5.32335 8.61227 4.90419C8.92839 4.48503 9.21577 4.10779 9.47442 3.77246C9.73306 3.40918 10.0636 3.11577 10.4659 2.89222C10.8395 2.66866 11.2418 2.5988 11.6729 2.68264C12.104 2.76647 12.4632 3.03194 12.7506 3.47904C13.0092 3.92615 13.0667 4.35928 12.923 4.77844C12.7793 5.19761 12.5207 5.51896 12.1471 5.74252C11.7447 5.96607 11.3137 6.09182 10.8539 6.11976C10.4228 6.14771 9.93423 6.18962 9.3882 6.24551C8.87091 6.27345 8.28178 6.44112 7.62079 6.7485C7.44836 6.80439 7.36215 6.88822 7.36215 7C7.36215 7.11178 7.44836 7.19561 7.62079 7.2515C8.28178 7.53094 8.87091 7.6986 9.3882 7.75449C9.93423 7.81038 10.4228 7.8523 10.8539 7.88024C11.3137 7.90818 11.7447 8.03393 12.1471 8.25749C12.5207 8.45309 12.7793 8.76048 12.923 9.17964C13.0667 9.5988 13.0092 10.0459 12.7506 10.521C12.4632 10.9681 12.104 11.2335 11.6729 11.3174C11.2418 11.3733 10.8395 11.3034 10.4659 11.1078C9.91986 10.8004 9.47442 10.3533 9.12956 9.76647C8.7847 9.17964 8.18119 8.53693 7.31904 7.83832C7.20409 7.72655 7.08914 7.6986 6.97418 7.75449C6.85923 7.78244 6.81612 7.88024 6.84486 8.0479C6.93107 8.74651 7.07477 9.34731 7.27593 9.8503C7.50584 10.3253 7.70701 10.7585 7.87944 11.1497C8.08061 11.513 8.18119 11.9182 8.18119 12.3653C8.18119 12.7844 8.0375 13.1617 7.75012 13.497C7.46273 13.8323 7.04603 14 6.5 14Z" fill="#1A1A1A"/>
</svg>
