<svg width="68" height="60" viewBox="0 0 68 60" fill="none" xmlns="http://www.w3.org/2000/svg">
<path d="M14.1231 60C9.76409 60 6.3641 58.4196 3.92307 55.2587C1.30769 52.0978 0 47.7956 0 42.3518C0 34.2741 1.74359 26.8988 5.23077 20.2258C8.8923 13.5528 14.7333 7.31891 22.7539 1.52399C24.8462 -0.0564447 26.5025 -0.407653 27.7231 0.470369C28.4205 0.997181 28.7692 1.7874 28.7692 2.84102C28.7692 3.71903 28.1589 4.59705 26.9385 5.47507C21.0102 10.5676 17.1743 14.5187 15.4308 17.3283C13.8616 19.9624 13.0769 22.772 13.0769 25.7573C13.0769 28.9181 13.7743 31.3767 15.1692 33.1326C16.5641 34.7131 18.1333 36.118 19.8769 37.3471C21.6205 38.4007 23.1897 39.7178 24.5846 41.2982C25.9795 42.8786 26.6769 45.2493 26.6769 48.4102C26.6769 51.571 25.5435 54.2929 23.2769 56.5757C21.1846 58.8586 18.1333 60 14.1231 60ZM53.3538 60C48.9948 60 45.5077 58.4196 42.8923 55.2587C40.4512 52.0978 39.2308 47.7956 39.2308 42.3518C39.2308 34.2741 40.9743 26.8988 44.4615 20.2258C48.1231 13.5528 53.9641 7.31891 61.9846 1.52399C64.0769 -0.0564447 65.7333 -0.407653 66.9538 0.470369C67.6513 0.997181 68 1.7874 68 2.84102C68 3.71903 67.3898 4.59705 66.1692 5.47507C60.241 10.5676 56.4051 14.5187 54.6615 17.3283C53.0923 19.9624 52.3077 22.772 52.3077 25.7573C52.3077 28.9181 53.0052 31.3767 54.4 33.1326C55.7948 34.7131 57.3641 36.118 59.1077 37.3471C60.8513 38.4007 62.4205 39.7178 63.8154 41.2982C65.2102 42.8786 65.9077 45.2493 65.9077 48.4102C65.9077 51.571 64.7744 54.2929 62.5077 56.5757C60.4154 58.8586 57.3641 60 53.3538 60Z" fill="#F4F4F4"/>
</svg>
